HIERARCHY
ROOT hip
{
  OFFSET 0.00112043 5.09927 -9.65472
  CHANNELS 6 Xposition Yposition Zposition Zrotation Xrotation Yrotation
  JOINT abdomen
  {
    OFFSET 0 -1.186 -1.5018
    CHANNELS 3 Zrotation Xrotation Yrotation
    JOINT abdomen2
    {
      OFFSET 0 9.964 0.2134
      CHANNELS 3 Zrotation Xrotation Yrotation
      JOINT chest
      {
        OFFSET 0 13.134 -3.2573
        CHANNELS 3 Zrotation Xrotation Yrotation
        JOINT neck
        {
          OFFSET 0 20.686 -1.6905
          CHANNELS 3 Zrotation Xrotation Yrotation
          JOINT head
          {
            OFFSET 0 7.238 -0.1237
            CHANNELS 3 Zrotation Xrotation Yrotation
            End Site
            {
              OFFSET 0 0 0
            }
          }
        }
        JOINT lCollar
        {
          OFFSET 1.7069 20.075 5.0056
          CHANNELS 3 Zrotation Xrotation Yrotation
          JOINT lShldr
          {
            OFFSET 13.6458 -0.047 -4.849
            CHANNELS 3 Zrotation Xrotation Yrotation
            JOINT lForeArm
            {
              OFFSET 28.3255 -0.9759 2.2888
              CHANNELS 3 Zrotation Xrotation Yrotation
              JOINT lHand
              {
                OFFSET 22.1583 -0.53 10.8316
                CHANNELS 3 Zrotation Xrotation Yrotation
                JOINT lThumb1
                {
                  OFFSET 0.786 0.112 2.5817
                  CHANNELS 3 Zrotation Xrotation Yrotation
                  JOINT lThumb2
                  {
                    OFFSET 0.3601 -0.878 4.2331
                    CHANNELS 3 Zrotation Xrotation Yrotation
                    JOINT lThumb2_End
                    {
                      OFFSET 1.8127 -1.216 2.2227
                      CHANNELS 3 Zrotation Xrotation Yrotation
                      End Site
                      {
                        OFFSET 0.0181 -0.0122 0.0222
                      }
                    }
                  }
                }
                JOINT lCarpal1
                {
                  OFFSET 0.9571 1.114 1.7695
                  CHANNELS 3 Zrotation Xrotation Yrotation
                  JOINT lIndex1
                  {
                    OFFSET 4.1246 0.487 4.1451
                    CHANNELS 3 Zrotation Xrotation Yrotation
                    JOINT lIndex2
                    {
                      OFFSET 3.4052 -1.454 2.7682
                      CHANNELS 3 Zrotation Xrotation Yrotation
                      JOINT lIndex2_End
                      {
                        OFFSET 1.4531 -1.795 1.2713
                        CHANNELS 3 Zrotation Xrotation Yrotation
                        End Site
                        {
                          OFFSET 0.0145 -0.0179 0.0127
                        }
                      }
                    }
                  }
                  JOINT lMid1
                  {
                    OFFSET 5.6954 0.21 2.1184
                    CHANNELS 3 Zrotation Xrotation Yrotation
                    JOINT lMid2
                    {
                      OFFSET 3.9766 -1.54 2.3863
                      CHANNELS 3 Zrotation Xrotation Yrotation
                      JOINT lMid2_End
                      {
                        OFFSET 1.4042 -1.926 1.125
                        CHANNELS 3 Zrotation Xrotation Yrotation
                        End Site
                        {
                          OFFSET 0.014 -0.0193 0.0113
                        }
                      }
                    }
                  }
                }
                JOINT lCarpal2
                {
                  OFFSET 2.0956 0.66 -0.3894
                  CHANNELS 3 Zrotation Xrotation Yrotation
                  JOINT lRing1
                  {
                    OFFSET 5.0395 -0.09 2.4971
                    CHANNELS 3 Zrotation Xrotation Yrotation
                    JOINT lRing2
                    {
                      OFFSET 3.7921 -1.552 1.4806
                      CHANNELS 3 Zrotation Xrotation Yrotation
                      JOINT lRing2_End
                      {
                        OFFSET 1.4655 -1.808 0.9609
                        CHANNELS 3 Zrotation Xrotation Yrotation
                        End Site
                        {
                          OFFSET 0.0147 -0.0181 0.0096
                        }
                      }
                    }
                  }
                  JOINT lPinky1
                  {
                    OFFSET 4.9141 -1.269 0.3591
                    CHANNELS 3 Zrotation Xrotation Yrotation
                    JOINT lPinky2
                    {
                      OFFSET 3.1477 -1.685 0.8462
                      CHANNELS 3 Zrotation Xrotation Yrotation
                      JOINT lPinky2_End
                      {
                        OFFSET 0.8055 -1.585 0.7955
                        CHANNELS 3 Zrotation Xrotation Yrotation
                        End Site
                        {
                          OFFSET 0.0081 -0.0158 0.008
                        }
                      }
                    }
                  }
                }
              }
            }
          }
        }
        JOINT rCollar
        {
          OFFSET -1.7069 20.075 5.0056
          CHANNELS 3 Zrotation Xrotation Yrotation
          JOINT rShldr
          {
            OFFSET -13.6458 -0.047 -4.849
            CHANNELS 3 Zrotation Xrotation Yrotation
            JOINT rForeArm
            {
              OFFSET -28.3255 -0.9759 2.2888
              CHANNELS 3 Zrotation Xrotation Yrotation
              JOINT rHand
              {
                OFFSET -22.1583 -0.53 10.8316
                CHANNELS 3 Zrotation Xrotation Yrotation
                JOINT rThumb1
                {
                  OFFSET -0.786 0.112 2.5817
                  CHANNELS 3 Zrotation Xrotation Yrotation
                  JOINT rThumb2
                  {
                    OFFSET -0.3601 -0.878 4.2331
                    CHANNELS 3 Zrotation Xrotation Yrotation
                    JOINT rThumb2_End
                    {
                      OFFSET -1.8127 -1.216 2.2227
                      CHANNELS 3 Zrotation Xrotation Yrotation
                      End Site
                      {
                        OFFSET -0.0181 -0.0122 0.0222
                      }
                    }
                  }
                }
                JOINT rCarpal1
                {
                  OFFSET -0.9571 1.114 1.7695
                  CHANNELS 3 Zrotation Xrotation Yrotation
                  JOINT rIndex1
                  {
                    OFFSET -4.1246 0.487 4.1451
                    CHANNELS 3 Zrotation Xrotation Yrotation
                    JOINT rIndex2
                    {
                      OFFSET -3.4052 -1.454 2.7682
                      CHANNELS 3 Zrotation Xrotation Yrotation
                      JOINT rIndex2_End
                      {
                        OFFSET -1.4531 -1.795 1.2713
                        CHANNELS 3 Zrotation Xrotation Yrotation
                        End Site
                        {
                          OFFSET -0.0145 -0.018 0.0127
                        }
                      }
                    }
                  }
                  JOINT rMid1
                  {
                    OFFSET -5.6954 0.21 2.1184
                    CHANNELS 3 Zrotation Xrotation Yrotation
                    JOINT rMid2
                    {
                      OFFSET -3.9766 -1.54 2.3863
                      CHANNELS 3 Zrotation Xrotation Yrotation
                      JOINT rMid2_End
                      {
                        OFFSET -1.4042 -1.926 1.125
                        CHANNELS 3 Zrotation Xrotation Yrotation
                        End Site
                        {
                          OFFSET -0.014 -0.0193 0.0113
                        }
                      }
                    }
                  }
                }
                JOINT rCarpal2
                {
                  OFFSET -2.0956 0.66 -0.3894
                  CHANNELS 3 Zrotation Xrotation Yrotation
                  JOINT rRing1
                  {
                    OFFSET -5.0395 -0.09 2.4971
                    CHANNELS 3 Zrotation Xrotation Yrotation
                    JOINT rRing2
                    {
                      OFFSET -3.7921 -1.552 1.4806
                      CHANNELS 3 Zrotation Xrotation Yrotation
                      JOINT rRing2_End
                      {
                        OFFSET -1.4655 -1.808 0.9609
                        CHANNELS 3 Zrotation Xrotation Yrotation
                        End Site
                        {
                          OFFSET -0.0147 -0.0181 0.0096
                        }
                      }
                    }
                  }
                  JOINT rPinky1
                  {
                    OFFSET -4.9141 -1.269 0.3592
                    CHANNELS 3 Zrotation Xrotation Yrotation
                    JOINT rPinky2
                    {
                      OFFSET -3.1477 -1.685 0.8462
                      CHANNELS 3 Zrotation Xrotation Yrotation
                      JOINT rPinky2_End
                      {
                        OFFSET -0.8055 -1.585 0.7955
                        CHANNELS 3 Zrotation Xrotation Yrotation
                        End Site
                        {
                          OFFSET -0.0081 -0.0158 0.008
                        }
                      }
                    }
                  }
                }
              }
            }
          }
        }
      }
    }
  }
  JOINT lThigh
  {
    OFFSET 8.367 -8.2066 0.5982
    CHANNELS 3 Zrotation Xrotation Yrotation
    JOINT lShin
    {
      OFFSET 2.1923 -43.463 -0.4932
      CHANNELS 3 Zrotation Xrotation Yrotation
      JOINT lFoot
      {
        OFFSET 0.7333 -45.8593 -2.6451
        CHANNELS 3 Zrotation Xrotation Yrotation
        End Site
        {
          OFFSET 2.6618 -4.2699 12.3931
        }
      }
    }
  }
  JOINT rThigh
  {
    OFFSET -8.367 -8.2066 0.5982
    CHANNELS 3 Zrotation Xrotation Yrotation
    JOINT rShin
    {
      OFFSET -2.1923 -43.463 -0.4931
      CHANNELS 3 Zrotation Xrotation Yrotation
      JOINT rFoot
      {
        OFFSET -0.7333 -45.8593 -2.6451
        CHANNELS 3 Zrotation Xrotation Yrotation
        End Site
        {
          OFFSET -2.6618 -4.2699 12.3931
        }
      }
    }
  }
}
MOTION
Frames:	4
Frame Time:	0.0333333
-21.8244 -2.37594 44.6105 89.988 71.994 39.9995 -6.28441 8.52864 -2.47858 -12.4006 17.2739 -4.05544 -12.4005 17.2738 -4.05546 -27.4374 -7.54392 4.03976 -0.860261 -8.48168 29.1494 -23.3827 15.1238 -13.3237 -62.4687 -77.3102 -13.5141 -115.851 15.9855 -6.4267 -11.3426 -50.2241 22.4182 1.51565e-006 -7.33134e-007 2.49991e-007 -0 0 9.54166e-015 2.64834e-031 -2.38542e-015 6.36111e-015 -4.41391e-032 7.95139e-016 3.18055e-015 1.51565e-006 -7.33134e-007 2.49991e-007 -3.18055e-015 1.59028e-015 6.36111e-015 -3.18055e-015 -3.18055e-015 9.54166e-015 1.51565e-006 -7.33134e-007 2.49991e-007 -3.18055e-015 1.59028e-015 6.36111e-015 -3.18055e-015 -3.18055e-015 9.54166e-015 -4.41391e-032 7.95139e-016 3.18055e-015 1.51565e-006 -7.33134e-007 2.49991e-007 -3.18055e-015 1.59028e-015 6.36111e-015 -3.18055e-015 -3.18055e-015 9.54166e-015 1.51565e-006 -7.33134e-007 2.49991e-007 -3.18055e-015 1.59028e-015 6.36111e-015 -3.18055e-015 -3.18055e-015 9.54166e-015 -1.32216 1.8481 7.84757 -2.17903 30.7509 12.104 -17.5588 -9.78997 -1.6327 -15.3746 2.64032 21.4114 -8.03624e-008 4.18829e-007 -1.49702e-008 2.40529e-014 9.14409e-015 -3.18055e-015 -4.99192e-007 3.38467e-007 -3.46943e-009 1.19271e-015 -3.97569e-016 -0 -8.03624e-008 4.18829e-007 -1.49702e-008 2.38542e-014 9.93923e-015 -0 -4.99192e-007 3.38467e-007 -3.46943e-009 -8.03624e-008 4.18829e-007 -1.49702e-008 2.38542e-014 9.93923e-015 -0 -4.99192e-007 3.38467e-007 -3.46943e-009 1.19271e-015 -3.97569e-016 -0 -8.03624e-008 4.18829e-007 -1.49702e-008 2.38542e-014 9.93923e-015 -0 -4.99192e-007 3.38467e-007 -3.46943e-009 -8.03624e-008 4.18829e-007 -1.49702e-008 2.38542e-014 9.93923e-015 -0 -4.99192e-007 3.38467e-007 -3.46943e-009 74.3755 -22.5832 98.2355 49.1472 75.5062 -44.7211 33.2158 33.788 -42.894 -25.9595 -34.1759 -41.7732 -2.64444 60.8145 0.140152 1.13183 19.3241 5.39262 
-21.8244 -2.37595 44.6106 89.988 71.994 39.9995 -6.27967 8.50203 -2.4878 -12.3894 17.2216 -4.07768 -12.3893 17.2216 -4.07767 -27.426 -7.37872 4.12631 -0.859883 -8.31885 29.1519 -23.3021 15.0645 -13.3053 -62.4649 -77.3064 -13.4889 -115.965 16.0448 -6.33006 -11.3281 -50.2719 22.2792 -1.54187e-007 -1.32211e-006 -2.86798e-006 -5.81821e-008 6.80539e-007 -1.95109e-007 5.21883e-007 8.73164e-007 -2.92684e-006 -1.59028e-015 0 6.36111e-015 -1.54187e-007 -1.32211e-006 -2.86798e-006 -5.81821e-008 6.80539e-007 -1.95109e-007 5.21883e-007 8.73164e-007 -2.92684e-006 -1.54187e-007 -1.32211e-006 -2.86798e-006 -5.81821e-008 6.80539e-007 -1.95109e-007 5.21883e-007 8.73164e-007 -2.92684e-006 -1.59028e-015 0 6.36111e-015 -1.54187e-007 -1.32211e-006 -2.86798e-006 -5.81821e-008 6.80539e-007 -1.95109e-007 5.21883e-007 8.73164e-007 -2.92684e-006 -1.54187e-007 -1.32211e-006 -2.86798e-006 -5.81821e-008 6.80539e-007 -1.95109e-007 5.21883e-007 8.73164e-007 -2.92684e-006 -1.33915 1.83179 7.98197 -2.17902 30.7509 12.104 -17.5588 -9.78997 -1.6327 -15.3746 2.64032 21.4114 -7.95139e-016 7.95139e-016 6.36111e-015 -8.03998e-008 4.18825e-007 -1.45565e-008 -1.39149e-015 -1.59028e-015 -6.36111e-015 -7.95139e-016 7.95139e-016 6.36111e-015 -1.98785e-016 1.59028e-015 6.36111e-015 -8.03998e-008 4.18825e-007 -1.45565e-008 -1.78906e-015 -2.38542e-015 -6.36111e-015 -1.98785e-016 1.59028e-015 6.36111e-015 -8.03998e-008 4.18825e-007 -1.45565e-008 -1.78906e-015 -2.38542e-015 -6.36111e-015 -7.95139e-016 7.95139e-016 6.36111e-015 -1.98785e-016 1.59028e-015 6.36111e-015 -8.03998e-008 4.18825e-007 -1.45565e-008 -1.78906e-015 -2.38542e-015 -6.36111e-015 -1.98785e-016 1.59028e-015 6.36111e-015 -8.03998e-008 4.18825e-007 -1.45565e-008 -1.78906e-015 -2.38542e-015 -6.36111e-015 74.3756 -22.5828 98.2355 49.1473 75.5063 -44.7217 33.2159 33.788 -42.894 -25.8939 -34.2168 -41.6334 -2.64459 60.8147 0.139332 1.23388 19.3252 5.27661 
-21.8245 -2.37595 44.6106 89.988 71.994 39.9995 -6.27528 8.47722 -2.49641 -12.3789 17.1729 -4.09835 -12.3789 17.1729 -4.09835 -27.4158 -7.22504 4.20663 -0.859531 -8.16722 29.1541 -23.2271 15.0093 -13.288 -62.4609 -77.3024 -13.4635 -116.072 16.0999 -6.23987 -11.3147 -50.3164 22.1497 -3.18055e-015 3.97569e-015 -0 -1.51389e-006 7.35286e-007 -2.54188e-007 -0 0 3.18055e-015 -1.59028e-015 3.97569e-015 -0 -1.59028e-015 0 3.18055e-015 -1.51389e-006 7.35286e-007 -2.54188e-007 1.59028e-015 3.97569e-015 3.18055e-015 -1.59028e-015 0 3.18055e-015 -1.51389e-006 7.35286e-007 -2.54188e-007 1.59028e-015 3.97569e-015 3.18055e-015 -1.59028e-015 3.97569e-015 -0 -1.59028e-015 0 3.18055e-015 -1.51389e-006 7.35286e-007 -2.54188e-007 1.59028e-015 3.97569e-015 3.18055e-015 -1.59028e-015 0 3.18055e-015 -1.51389e-006 7.35286e-007 -2.54188e-007 1.59028e-015 3.97569e-015 3.18055e-015 -1.35494 1.81656 8.10713 -2.17901 30.7509 12.104 -17.5588 -9.78997 -1.63269 -15.3746 2.64031 21.4114 -4.99255e-007 3.38385e-007 -1.87392e-009 3.97569e-016 1.59028e-015 3.18055e-015 -8.0435e-008 4.1882e-007 -1.41705e-008 1.98785e-016 -1.59028e-015 3.18055e-015 -4.99255e-007 3.38385e-007 -1.87391e-009 5.96354e-016 7.95139e-016 6.36111e-015 -8.0435e-008 4.1882e-007 -1.41706e-008 -4.99255e-007 3.38385e-007 -1.87391e-009 5.96354e-016 7.95139e-016 6.36111e-015 -8.0435e-008 4.1882e-007 -1.41706e-008 1.98785e-016 -1.59028e-015 3.18055e-015 -4.99255e-007 3.38385e-007 -1.87391e-009 5.96354e-016 7.95139e-016 6.36111e-015 -8.0435e-008 4.1882e-007 -1.41706e-008 -4.99255e-007 3.38385e-007 -1.87391e-009 5.96354e-016 7.95139e-016 6.36111e-015 -8.0435e-008 4.1882e-007 -1.41706e-008 74.3746 -22.5842 98.2352 49.1452 75.5055 -44.7182 33.2159 33.788 -42.8941 -25.8326 -34.2546 -41.5031 -2.64477 60.8149 0.138517 1.32884 19.3262 5.16858 
-21.8245 -2.37595 44.6107 89.988 71.994 39.9995 -6.27084 8.45243 -2.50498 -12.3685 17.1243 -4.11904 -12.3685 17.1243 -4.119 -27.4058 -7.07151 4.28702 -0.859194 -8.01556 29.1564 -23.1521 14.954 -13.2707 -62.4571 -77.2986 -13.4382 -116.179 16.1548 -6.14956 -11.3015 -50.3609 22.0201 -1.51304e-006 7.36318e-007 -2.562e-007 -7.56521e-007 3.68159e-007 -1.281e-007 -3.18055e-015 -7.15625e-015 -0 -3.18055e-015 2.38542e-015 -3.18055e-015 -1.51304e-006 7.36318e-007 -2.562e-007 -7.56521e-007 3.68159e-007 -1.281e-007 -4.77083e-015 -4.77083e-015 -0 -1.51304e-006 7.36318e-007 -2.562e-007 -7.56521e-007 3.68159e-007 -1.281e-007 -4.77083e-015 -4.77083e-015 -0 -3.18055e-015 2.38542e-015 -3.18055e-015 -1.51304e-006 7.36318e-007 -2.562e-007 -7.56521e-007 3.68159e-007 -1.281e-007 -4.77083e-015 -4.77083e-015 -0 -1.51304e-006 7.36318e-007 -2.562e-007 -7.56521e-007 3.68159e-007 -1.281e-007 -4.77083e-015 -4.77083e-015 -0 -1.37069 1.80128 8.23232 -2.17902 30.7509 12.104 -17.5588 -9.78997 -1.63269 -15.3746 2.64031 21.4114 5.96354e-016 7.95139e-016 -9.54166e-015 8.34629e-007 -9.13439e-008 -7.92832e-007 4.32367e-008 4.2877e-008 7.74365e-007 -7.95139e-016 0 -6.36111e-015 2.18663e-015 -1.59028e-015 -3.18055e-015 8.34629e-007 -9.13439e-008 -7.92832e-007 4.32367e-008 4.2877e-008 7.74366e-007 2.18663e-015 -1.59028e-015 -3.18055e-015 8.34629e-007 -9.13439e-008 -7.92832e-007 4.32367e-008 4.2877e-008 7.74366e-007 -7.95139e-016 0 -6.36111e-015 2.18663e-015 -1.59028e-015 -3.18055e-015 8.34629e-007 -9.13439e-008 -7.92832e-007 4.32367e-008 4.2877e-008 7.74366e-007 2.18663e-015 -1.59028e-015 -3.18055e-015 8.34629e-007 -9.13439e-008 -7.92832e-007 4.32367e-008 4.2877e-008 7.74366e-007 74.375 -22.5833 98.2354 49.1459 75.5059 -44.7197 33.216 33.788 -42.8941 -25.7713 -34.2924 -41.3727 -2.64491 60.8152 0.137733 1.42381 19.3272 5.06052 
